<svg width="24" height="24" viewBox="0 0 24 24" fill="none" xmlns="http://www.w3.org/2000/svg">
<path d="M9.50002 12.0067L16.85 19.3567C17.1 19.6067 17.221 19.8984 17.213 20.2317C17.205 20.565 17.0757 20.8567 16.825 21.1067C16.5744 21.3567 16.2827 21.4817 15.95 21.4817C15.6174 21.4817 15.3257 21.3567 15.075 21.1067L7.37502 13.4317C7.17502 13.2317 7.02502 13.0067 6.92502 12.7567C6.82502 12.5067 6.77502 12.2567 6.77502 12.0067C6.77502 11.7567 6.82502 11.5067 6.92502 11.2567C7.02502 11.0067 7.17502 10.7817 7.37502 10.5817L15.075 2.88169C15.325 2.63169 15.621 2.51069 15.963 2.51869C16.305 2.52669 16.6007 2.65602 16.85 2.90669C17.0994 3.15735 17.2244 3.44902 17.225 3.78169C17.2257 4.11435 17.1007 4.40602 16.85 4.65669L9.50002 12.0067Z" fill="#212529"/>
<path d="M9.50002 12.0067L16.85 19.3567C17.1 19.6067 17.221 19.8984 17.213 20.2317C17.205 20.565 17.0757 20.8567 16.825 21.1067C16.5744 21.3567 16.2827 21.4817 15.95 21.4817C15.6174 21.4817 15.3257 21.3567 15.075 21.1067L7.37502 13.4317C7.17502 13.2317 7.02502 13.0067 6.92502 12.7567C6.82502 12.5067 6.77502 12.2567 6.77502 12.0067C6.77502 11.7567 6.82502 11.5067 6.92502 11.2567C7.02502 11.0067 7.17502 10.7817 7.37502 10.5817L15.075 2.88169C15.325 2.63169 15.621 2.51069 15.963 2.51869C16.305 2.52669 16.6007 2.65602 16.85 2.90669C17.0994 3.15735 17.2244 3.44902 17.225 3.78169C17.2257 4.11435 17.1007 4.40602 16.85 4.65669L9.50002 12.0067Z" fill="black" fill-opacity="0.2"/>
</svg>
